<svg width="463" height="464" xmlns="http://www.w3.org/2000/svg" xmlns:xlink="http://www.w3.org/1999/xlink" xml:space="preserve" overflow="hidden"><g transform="translate(-1957 -940)"><path d="M1957 1083.72C1957 1004.34 2021.34 940 2100.72 940L2276.28 940C2355.66 940 2420 1004.34 2420 1083.72L2420 1260.28C2420 1339.66 2355.66 1404 2276.28 1404L2100.72 1404C2021.34 1404 1957 1339.66 1957 1260.28Z" fill="#FFFFFF" fill-rule="evenodd"/><g><g><g><path d="M162.23 67.596C169.697 67.596 175.75 61.5432 175.75 54.0768 175.75 46.6104 169.697 40.5576 162.23 40.5576 154.764 40.5576 148.711 46.6104 148.711 54.0768 148.711 61.5432 154.764 67.596 162.23 67.596Z" stroke="#000000" stroke-width="20.2788" stroke-linecap="round" stroke-linejoin="round" transform="matrix(1.00226 0 0 1 2025.7 1024.32)"/><path d="M216.307 13.5192C216.307 13.5192 236.586 27.0384 236.586 54.0768 236.586 81.1152 216.307 94.6344 216.307 94.6344" stroke="#000000" stroke-width="20.2788" stroke-linecap="round" stroke-linejoin="round" fill="none" transform="matrix(1.00226 0 0 1 2018.22 1024.36)"/><path d="M108.154 13.5192C108.154 13.5192 87.8748 27.0384 87.8748 54.0768 87.8748 81.1152 108.154 94.6344 108.154 94.6344" stroke="#000000" stroke-width="20.2788" stroke-linecap="round" stroke-linejoin="round" fill="none" transform="matrix(1.00226 0 0 1 2033.17 1024.36)"/><path d="M94.6344 310.942 109.656 256.865M229.826 310.942 214.805 256.865M196.028 189.269 162.23 67.596 128.432 189.269M196.028 189.269 128.432 189.269M196.028 189.269 214.805 256.865M128.432 189.269 109.656 256.865M109.656 256.865 214.805 256.865" stroke="#000000" stroke-width="20.2788" stroke-linecap="round" stroke-linejoin="round" fill="none" transform="matrix(1.00226 0 0 1 2025.8 1024.25)"/><path d="M276.774 125.068C281.017 120.825 281.017 113.947 276.774 109.704 272.53 105.461 265.652 105.461 261.411 109.704 221.029 150.086 221.029 215.79 261.411 256.171 263.532 258.291 266.312 259.351 269.092 259.351 271.872 259.351 274.653 258.291 276.774 256.169 281.017 251.926 281.017 245.049 276.774 240.806 244.863 208.897 244.863 156.976 276.774 125.068Z" transform="matrix(1.00226 0 0 1 1842.05 894.113)"/><path d="M407.875 109.704C403.632 105.461 396.754 105.461 392.513 109.704 388.27 113.947 388.27 120.825 392.513 125.068 424.422 156.978 424.422 208.898 392.513 240.807 388.27 245.052 388.27 251.929 392.513 256.172 394.633 258.292 397.415 259.355 400.194 259.355 402.973 259.355 405.755 258.295 407.875 256.172 448.257 215.79 448.257 150.085 407.875 109.704Z" transform="matrix(1.00226 0 0 1 1864.74 894.836)"/></g></g></g></g></svg>